<svg width="947" height="1023" viewBox="0 0 947 1023" fill="none" xmlns="http://www.w3.org/2000/svg">
<path d="M713 882.811C713 882.811 695 912.175 667 894.178C639 876.181 662 800.403 711 823.136C711 823.136 682 780.511 701 733.15C720 685.789 738 700.945 738 700.945C738 700.945 715 677.264 750 605.275C785 533.286 814 503.922 849 515.289C884 526.656 899 644.111 858 703.786C858 703.786 873 685.789 879 703.786C885 721.783 905 789.983 816 841.133C727 892.283 713 882.811 713 882.811Z" fill="#F3E7D9"/>
<path d="M508 943.433C520.49 940.014 495 827.872 428 824.083C361 820.294 356 850.605 364 870.497C364 870.497 272 766.303 216 751.147C160 735.992 185 764.408 185 764.408C185 764.408 117 748.305 103 769.144C89.0002 789.983 137 859.13 226 892.283C315 925.436 463 955.747 508 943.433Z" fill="#F3E7D9"/>
<path d="M625 721.783C625 721.783 598 633.692 609 600.539C609 600.539 582 600.539 604 546.547C626 492.556 636 485.925 651 493.503C666 501.081 673 537.075 652 572.122C652 572.122 658 550.336 680 556.967C702 563.597 656 697.156 641 717.994C626 738.833 625 721.783 625 721.783Z" fill="#F3E7D9"/>
<path d="M508 634.639C508 634.639 531.62 632.849 537 621.378L539 620.43C539 620.43 544 628.008 531 634.639C518 641.269 504 646.005 508 634.639Z" fill="#F3E7D9"/>
<path d="M534 610.011C534 610.011 545 621.378 529 629.903C513 638.428 489 644.111 481 625.167C473 606.222 495 590.119 513 593.908C531 597.697 534 610.011 534 610.011Z" fill="#992C29"/>
<path d="M380 680.106C379 682.947 365 699.05 379 709.469C393 719.889 446.09 669.885 421 661.729C395.91 653.574 381 677.264 380 680.106Z" fill="#992C29"/>
<path d="M422 675.369C422 675.369 422 689.578 405 699.05C388 708.522 383 708.522 378 706.628C373 704.733 374 709.469 376 711.364C378 713.258 382 716.1 396 710.417C410 704.733 425 691.472 427 683.894C429 676.317 428 670.633 422 675.369Z" fill="#F3E7D9"/>
<path d="M593.77 801C593.339 801.692 593.13 802.489 593.17 803.292C593.32 805.887 594.95 810.33 599.17 814.213C603.72 818.372 609.27 826.802 610.56 828.81C610.767 829.121 611.012 829.407 611.29 829.663C612.54 830.771 615.58 837.724 622.75 836.473C633.96 834.503 631.35 824.983 625.3 816.582C619.25 808.18 614.73 797.448 606.06 795.364C599.15 793.668 595.11 798.868 593.77 801Z" fill="#C94039"/>
<path d="M594 797.561C593.57 798.253 594.13 801.54 594.17 802.297C594.32 804.893 595.95 809.335 600.17 813.219C604.805 817.475 608.667 822.426 611.6 827.872C614 832.608 620.79 836.483 627 835.45C633.21 834.418 632.39 824.083 626.34 815.558C620.29 807.033 615.77 796.425 607.1 794.341C600.15 792.721 595.33 795.43 594 797.561Z" fill="#121721"/>
<path d="M560 713.258C560 713.258 572 738.833 577 750.2C582 761.567 587 781.458 588 789.036C589 796.614 589 799.456 594 799.456C599 799.456 611 806.086 616 800.403C621 794.72 614 775.775 614 775.775C614 775.775 616 706.628 599 690.525C577.41 670.075 560 701.892 560 713.258Z" fill="#273252"/>
<path d="M596 735.992L600 778.617C598.546 780.433 597.21 782.33 596 784.3C595 786.195 602 789.036 602 789.036C602 789.036 589 799.456 594 799.456C599 799.456 611 806.086 616 800.403C621 794.72 614 775.775 614 775.775C614 775.775 616 706.628 599 690.525C577.41 670.075 596 724.625 596 735.992Z" fill="#1D2538"/>
<path d="M546.64 849.185C546.64 849.185 541.54 857.255 547.5 867.741C553.46 878.227 556.01 893.553 564.5 900.818C572.99 908.083 582.38 909.693 590.05 904.048C597.72 898.402 590.9 879.032 585.79 870.971C580.68 862.91 579.11 854.413 574.79 846.959C570.47 839.504 556.86 837.894 546.64 849.185Z" fill="#121721"/>
<path d="M497 623.272C502 623.272 559 659.267 575 671.581C591 683.895 603 689.578 603 699.05C603 708.522 599 715.153 592 718.942C585 722.731 579 724.625 561 715.153C543 705.681 514 688.631 491 679.159C468 669.686 467 652.636 476 637.481C485 622.325 497 623.272 497 623.272Z" fill="#273252"/>
<path d="M575 671.581C591 683.895 603 689.578 603 699.05C603 708.522 600 716.1 593 719.889L586 709.47L591 699.997L548 653.583C548 653.583 559 659.267 575 671.581Z" fill="#273252"/>
<path d="M478 755.883C478.75 759.606 481 770.092 488 775.775C495 781.458 505 796.614 512 812.717C516.722 823.159 522.767 833.019 530 842.081C530 842.081 533 854.395 541 858.183C549 861.972 566 856.289 566 856.289C566 856.289 575 853.447 575 846.817C575 840.186 566 823.136 566 823.136C566 823.136 523 725.572 517 723.678C511 721.783 474 735.992 478 755.883Z" fill="#273252"/>
<path d="M495 772.934C495.75 776.656 524 830.714 531 836.397C538 842.081 540 844.922 545 844.922C550 844.922 554 844.922 547 846.817C540 848.711 533 854.395 541 858.184C549 861.972 566 856.289 566 856.289C566 856.289 575 853.447 575 846.817C575 840.186 566 823.136 566 823.136C566 823.136 523 725.572 517 723.678C511 721.784 491 753.042 495 772.934Z" fill="#1D2538"/>
<path d="M407 654.531C407 654.531 409 670.633 429 697.156C429.76 698.16 438.5 705.794 439.23 706.808C457.84 732.572 476 764.408 487 770.092C505.85 779.829 527 777.67 529 756.831C531 735.992 514 715.153 496 682C478 648.847 461 618.536 433 630.85C405 643.164 407 654.531 407 654.531Z" fill="#273252"/>
<path d="M504 726.52L476 731.256L487 770.092C487 770.092 525 790.931 529 756.831C531.44 735.992 514 715.153 496 682C478 648.847 504 726.52 504 726.52Z" fill="#1D2538"/>
<path d="M415.77 673.475C418 671.581 448 675.37 454 674.422C460 673.475 485 659.267 485 659.267L493 642.217C493 642.217 495 650.742 495 649.795C495 648.847 503 626.114 503 626.114C503 626.114 496 621.378 491 621.378C485 621.378 415.77 673.475 415.77 673.475Z" fill="#1D2538"/>
<path d="M365 550.336C361.3 546.831 301.85 462.898 293.08 450.508C292.783 450.086 292.333 449.782 291.816 449.653C291.298 449.524 290.748 449.579 290.27 449.807C289.988 449.941 289.739 450.13 289.541 450.362C289.342 450.594 289.199 450.864 289.12 451.153C289.041 451.442 289.029 451.744 289.084 452.038C289.14 452.332 289.261 452.612 289.44 452.857L363 554.125L365 550.336Z" fill="#D77D5B"/>
<path d="M295.46 453.568C295.46 453.568 251 447.089 237 437.617C223 428.144 219 430.986 226 449.931C233 468.875 245 498.239 245 498.239C245 498.239 290 501.081 307 501.081C324 501.081 328.21 499.12 328.21 499.12L295.46 453.568Z" fill="#FFACFF"/>
<path d="M258.04 471.148L286.84 474.966L288.85 477.571L259.18 474.047L258.04 471.148Z" fill="#3E4C6F"/>
<path d="M254.62 464.328L294.83 469.718L296.83 472.323L255.76 467.227L254.62 464.328Z" fill="#3E4C6F"/>
<path d="M251.2 458.456L291.41 463.855L293.41 466.45L252.34 461.364L251.2 458.456Z" fill="#3E4C6F"/>
<path d="M303.55 482.259C301.48 481.7 296.2 480.526 294.55 484.012C292.55 488.35 298.46 491.381 300.46 491.381L298.46 493.275C298.46 493.275 302.29 493.095 304.46 491.381C307.51 489.003 308.16 483.509 303.55 482.259Z" fill="#3E4C6F"/>
<path d="M229 470.77C230 471.717 245 498.239 245 498.239C245 498.239 265 488.767 263 481.189C261 473.611 229 470.77 229 470.77Z" fill="#665070"/>
<path d="M263 481.189C263 481.189 252.51 475.951 236.25 474.312C219.99 472.673 187 477.4 180 480.242C180 480.242 151 412.989 144 407.306C144 407.306 170 400.675 196 405.411C222 410.147 232 424.356 236 432.881C240 441.406 264 472.664 263 481.189Z" fill="#BB83C3"/>
<path d="M207.54 433.411C207.47 435.874 204.47 436.897 200.88 435.684C197.29 434.472 194.51 431.564 194.61 429.148C194.71 426.733 197.61 425.729 201.18 426.875C204.75 428.021 207.61 430.986 207.54 433.411Z" fill="#F3E7D9"/>
<path d="M194.36 455.68L197.48 439.037L212.96 450.073L216.9 424.176L240.65 457.281L194.36 455.68Z" fill="#F3E7D9"/>
<path d="M429.45 505.911C431.66 485.016 384.22 486.787 360.56 492.84C345.92 496.629 331.83 508.819 329.56 516.122C328.78 518.623 325.98 532.623 326.97 539.5C328.04 547.011 342.97 576.801 355.59 571.298C372.9 563.768 427.23 526.817 429.45 505.911Z" fill="#C94039"/>
<path d="M414.83 515.895C415.13 501.317 390.56 489.43 368.88 492.698C343.63 496.486 330.54 512.22 332.24 520.167C333.94 528.114 354.63 533.712 372.24 533.703C389.85 533.693 414.69 522.393 414.83 515.895Z" fill="#F3E7D9"/>
<path d="M366.91 527.678C345.55 522.289 337.62 526.068 337.48 515.459C337.29 501.251 376.42 497.159 385.48 495.994C394.54 494.829 419.8 511.68 417.09 528.55C414.38 545.42 388.27 533.068 366.91 527.678Z" fill="#273252"/>
<path d="M464.8 364.311C464.8 364.311 450.75 341 450.75 340.053C450.75 339.106 453 326.555 453 320.161C453 316.372 459 304.058 465 305.006C471 305.953 469 306.9 465 323.95C463.82 328.999 472.14 314.677 476 320.161C479.86 325.646 486 323.003 490 325.845C494 328.686 495.86 344.922 492 348.578C488.14 352.234 485.48 362.919 480.65 365.628C475.82 368.337 464.8 364.311 464.8 364.311Z" fill="#F5894E"/>
<path d="M463 328.686C466.689 328.043 470.303 327.059 473.79 325.75C478 323.95 484 329.633 477 334.369C470 339.106 466 339.106 466 339.106C466 339.106 451 342.894 463 328.686Z" fill="#F5894E"/>
<path d="M586 213.125C586 213.125 570.9 258.592 582.45 290.797C594 323.003 659 269.958 630 238.7C601 207.442 586 213.125 586 213.125Z" fill="#665070"/>
<path d="M604 182.814C606 184.708 629 217.861 673 211.231C717 204.6 737 186.603 763 187.55C763 187.55 747 232.07 763 278.483C763 278.483 737 278.483 688 290.797C639 303.111 613 311.636 590 299.322C567 287.008 598 281.325 613 270.906C628 260.486 628.53 251.668 617.26 233.822C605.99 215.976 604 182.814 604 182.814Z" fill="#856792"/>
<path d="M634.27 281.657C648.033 281.657 659.19 271.088 659.19 258.052C659.19 245.015 648.033 234.447 634.27 234.447C620.507 234.447 609.35 245.015 609.35 258.052C609.35 271.088 620.507 281.657 634.27 281.657Z" fill="#F7BC4B"/>
<path d="M644.94 254.377C646.697 254.377 648.12 253.028 648.12 251.364C648.12 249.701 646.697 248.352 644.94 248.352C643.184 248.352 641.76 249.701 641.76 251.364C641.76 253.028 643.184 254.377 644.94 254.377Z" fill="#121721"/>
<path d="M623.55 254.377C625.306 254.377 626.73 253.028 626.73 251.364C626.73 249.701 625.306 248.352 623.55 248.352C621.794 248.352 620.37 249.701 620.37 251.364C620.37 253.028 621.794 254.377 623.55 254.377Z" fill="#121721"/>
<path d="M634.81 270.385C638.323 270.385 641.17 267.463 641.17 263.858C641.17 260.254 638.323 257.332 634.81 257.332C631.298 257.332 628.45 260.254 628.45 263.858C628.45 267.463 631.298 270.385 634.81 270.385Z" fill="#121721"/>
<path d="M626.56 244.099C625.31 242.754 621.64 242.565 619.78 245.274" stroke="#121721" stroke-linecap="round" stroke-linejoin="round"/>
<path d="M641.7 244.099C642.94 242.754 646.62 242.565 648.47 245.274" stroke="#121721" stroke-linecap="round" stroke-linejoin="round"/>
<path d="M532 427.197L322.48 120.648C322.057 120.03 321.783 119.331 321.679 118.601C321.575 117.871 321.643 117.128 321.878 116.426C322.113 115.724 322.51 115.08 323.039 114.541C323.569 114.002 324.218 113.58 324.94 113.307C326.081 112.874 327.345 112.833 328.514 113.192C329.683 113.55 330.683 114.284 331.34 115.268L538 423.408L532 427.197Z" fill="#7A462F"/>
<path d="M331 132.611L340 127.875C341.512 127.611 343.037 127.425 344.57 127.316C354.22 126.947 365.5 127.402 372 130.717C385 137.347 379 146.82 416 156.292C453 165.764 463 165.764 476 159.133C489 152.503 501 129.77 553 143.031C605 156.292 614 171.447 614 171.447C614 171.447 607 219.756 623 244.383C623 244.383 614 227.333 576 229.228C538 231.122 523 239.647 491 249.12C469.46 255.494 440.95 256.195 426 255.75C418.74 255.532 416 260.486 416 260.486L331 132.611Z" fill="#BB83C3"/>
<path d="M581.66 229.322C581.66 229.322 613.66 228.972 623 244.383C632.34 259.795 613.84 271.294 607 274.543C600.16 277.792 583.79 283.068 581.68 291.773C581.68 291.773 573.77 281.031 581.68 229.322" fill="#665070"/>
<path d="M722.335 255.925C728.138 243.856 723.546 230.061 712.076 225.112C700.607 220.164 686.605 225.935 680.801 238.004C674.997 250.072 679.59 263.867 691.059 268.816C702.529 273.765 716.531 267.993 722.335 255.925Z" fill="#C94039"/>
<path d="M691.578 252.978C693.194 252.63 694.27 251.376 693.982 250.177C693.694 248.978 692.151 248.289 690.535 248.637C688.92 248.985 687.843 250.239 688.131 251.438C688.419 252.637 689.962 253.326 691.578 252.978Z" fill="#121721"/>
<path d="M696.15 250.105L686.57 246.865" stroke="#121721" stroke-width="2" stroke-linecap="round" stroke-linejoin="round"/>
<path d="M712.061 251.336C713.676 250.988 714.753 249.734 714.465 248.535C714.177 247.336 712.634 246.647 711.018 246.995C709.402 247.343 708.326 248.597 708.614 249.796C708.902 250.995 710.445 251.684 712.061 251.336Z" fill="#121721"/>
<path d="M706.46 249.271L716.04 244.497" stroke="#121721" stroke-width="2" stroke-linecap="round" stroke-linejoin="round"/>
<path d="M709.24 259.018C709.6 256.981 706.44 256.347 702.31 256.792C698.18 257.237 695.62 258.772 695.38 260.467C695.14 262.163 708.88 261.045 709.24 259.018Z" fill="#121721"/>
<path d="M500.27 202.535C505.43 216.289 501.64 229.332 489.63 232.211C474.3 235.858 451.83 222.256 443.76 200.811C435.69 179.366 448.34 166.806 466.82 171.532C481.29 175.236 495.1 188.791 500.27 202.535Z" fill="#F7BC4B"/>
<path d="M476.42 211.458C480.54 206.068 487.64 210.937 487.64 210.937" stroke="#121721" stroke-width="3" stroke-linecap="round" stroke-linejoin="round"/>
<path d="M489.19 196.009C489.9 197.903 489.24 199.39 487.66 199.305C486.08 199.22 484.08 197.505 483.32 195.516C482.56 193.527 483.32 192.049 485 192.239C486.68 192.428 488.47 194.105 489.19 196.009Z" fill="#121721"/>
<path d="M466.68 194.057C467.54 196.35 466.43 198.102 464.14 197.979C461.85 197.856 459.04 195.753 458.14 193.309C457.24 190.865 458.51 189.132 460.94 189.416C462.232 189.671 463.435 190.229 464.438 191.04C465.441 191.852 466.212 192.889 466.68 194.057Z" fill="#121721"/>
<path d="M552.32 212.329C567.723 212.329 580.21 200.502 580.21 185.911C580.21 171.321 567.723 159.493 552.32 159.493C536.917 159.493 524.43 171.321 524.43 185.911C524.43 200.502 536.917 212.329 552.32 212.329Z" fill="#F7BC4B"/>
<g style="mix-blend-mode:multiply">
<path d="M537.16 171.618L545.6 175.975L532.94 178.873" stroke="#121721" stroke-width="2" stroke-linecap="round" stroke-linejoin="round"/>
</g>
<g style="mix-blend-mode:multiply">
<path d="M566.83 171.618L558.39 175.975L571.05 178.873" stroke="#121721" stroke-width="2" stroke-linecap="round" stroke-linejoin="round"/>
</g>
<path d="M567 182.141C557.112 179.966 546.812 180.119 537 182.587C536.035 182.825 535.198 183.396 534.654 184.188C534.11 184.98 533.898 185.936 534.06 186.868C535.06 193.584 542.46 202.781 552.63 202.781C562.8 202.781 569.5 194.02 570.21 186.262C570.317 185.319 570.046 184.373 569.451 183.61C568.857 182.847 567.983 182.323 567 182.141Z" fill="#121721"/>
<path d="M539 196.766C540.524 194.604 542.617 192.855 545.072 191.692C547.527 190.53 550.259 189.993 553 190.136C562.63 190.553 566.27 195.819 566.27 195.819C566.27 195.819 563.21 202.156 554 202.705C544.79 203.255 539 196.766 539 196.766Z" fill="#EE5D4F"/>
<path opacity="0.46" d="M331 132.611L340 127.875C341.512 127.611 343.037 127.425 344.57 127.316C354.22 126.947 365.5 127.402 372 130.717C385 137.347 379 146.82 416 156.292C453 165.764 463 165.764 476 159.133C489 152.503 414.71 254.803 414.71 254.803L331 132.611Z" fill="#FFACFF"/>
<path d="M468.08 319.981C468.08 319.981 463.94 332.579 469.15 334.957C474.36 337.334 475.15 328.951 475.15 328.951C475.15 328.951 473.93 334.531 475.31 338.253C476.69 341.976 479.1 341.047 481.02 337.306C482.94 333.564 481.22 336.359 481.22 336.359C481.22 336.359 479.59 343.804 483.99 343.804C488.39 343.804 492.65 328.781 490.12 325.589C487.59 322.397 487.75 322.993 484.12 323.628C484.12 323.628 481.03 319.451 476.59 320.928C476.59 320.928 475.26 316.562 468.09 319.981" fill="#F5894E"/>
<path d="M466 349.525C466 349.525 471 339.011 468.52 335.743C468.52 335.743 475 341.947 466 349.525Z" fill="#CC6D3D"/>
<path d="M463 328.686C466.689 328.043 470.303 327.059 473.79 325.75C478 323.95 484 329.633 477 334.369C470 339.106 466 339.106 466 339.106C466 339.106 451 342.894 463 328.686Z" fill="#CC6D3D"/>
<path d="M461 328.686C464.69 328.043 468.303 327.059 471.79 325.75C476 323.95 482 329.633 475 334.369C471.476 336.66 468.133 339.193 465 341.947C465 341.947 449 342.894 461 328.686Z" fill="#F5894E"/>
<path d="M460 361.309C461.72 366.225 464.42 361.65 473.27 362.332C480.63 362.89 486.27 365.865 487.56 361.744C489.07 356.752 483.5 357.207 471.93 357.16C464.5 357.103 458.24 356.383 460 361.309Z" fill="#F3E7D9"/>
<path d="M476.94 461.61C471.062 460.248 465.802 457.129 461.94 452.715C456.94 446.881 458.18 441.055 459.31 431.962C461.55 413.879 459.6 421.836 457.91 409.314C455.76 393.315 452.18 363.847 466.22 361.754C483.46 359.149 487.48 360.664 489.08 365.921C490.68 371.179 487.99 369.227 489.08 373.007C490.17 376.786 493 412.875 494.52 420.832C496.04 428.789 495.24 433.25 495.24 433.25C495.24 433.25 496.17 442.447 496.13 447.345C496.09 452.242 495.14 463.665 476.94 461.61Z" fill="#C94039"/>
<path d="M476.881 462.065C476.881 462.065 486.251 445.64 487.021 439.123C488.101 429.935 476.811 370.847 476.811 370.847C476.811 370.847 482.911 353.295 489.111 365.921C491.541 370.875 490.531 393.476 491.621 397.256C492.711 401.035 493.031 412.875 494.551 420.832C496.071 428.789 495.271 433.25 495.271 433.25C495.271 433.25 496.201 442.448 496.161 447.345C496.121 452.242 495.071 464.139 476.881 462.065Z" fill="#992C29"/>
<path d="M486.52 430.37L479.81 410.564L471.15 397.663C471.15 397.663 486.58 406.766 488.31 415.376C489.368 420.429 488.742 425.669 486.52 430.37Z" fill="#992C29"/>
<path d="M463.18 541.716C456.93 542.228 437.27 512.769 437.27 501.469C437.27 496.562 448.67 482.828 448.67 482.828L449.67 477.921C450.49 474.208 454 450.878 458 447.089C462 443.3 468 449.931 478 449.931C488 449.931 496.66 436.12 496.34 450.433C496.02 464.745 484.52 486.995 483.28 498.012C482.04 509.028 469.58 541.186 463.18 541.716Z" fill="#273252"/>
<path d="M463.18 541.716C456.93 542.228 437.27 512.769 437.27 501.469C437.27 496.562 450.85 503.363 454.27 503.619C457.69 503.875 469.84 494.63 469.84 494.63L466.41 489.382C466.41 489.382 468 449.931 478 449.931C488 449.931 496.66 436.12 496.34 450.433C496.02 464.745 484.52 486.995 483.28 498.012C482.04 509.028 469.58 541.186 463.18 541.716Z" fill="#1D2538"/>
<path d="M507 613.8C505 616.642 505 618.536 509 619.483C513 620.43 512 615.694 521 614.747C526.61 614.16 533.75 618.384 536 622.325C537.36 624.712 533.74 628.131 536 627.061C542 624.219 543 613.8 529 610.011C525.059 608.874 520.875 608.712 516.849 609.541C512.823 610.37 509.088 612.163 506 614.747" fill="#F3E7D9"/>
<path d="M373.171 522.914C373.171 522.914 389.34 509.918 421 503.97C431.001 502.075 447.45 513.091 459 538.07C470.55 563.048 499.001 616.689 499.001 616.689C499.001 616.689 477.31 644.803 452 661.208C433.23 673.371 410.66 676.193 403 671.628C385 660.858 347.281 538.903 373.171 522.914Z" fill="#F7BC4B"/>
<path d="M417.93 512.608C420.87 519.097 414.1 531.316 404.81 535.095C395.52 538.875 381.02 532.983 378.07 526.495C375.12 520.006 385.73 516.236 395 512.447C404.27 508.658 415 506.12 417.93 512.608Z" fill="#F5894E"/>
<path d="M457 630.992L444.55 573.893L418.27 509.34C430.49 507.446 454.7 520.963 466.27 545.941C477.84 570.919 499.59 616.642 499.59 616.642L492.59 630.85L448 670.633L405 673.475L418.671 670.747C418.671 670.747 444.61 664.116 448.47 659.503C456.34 650.031 468.87 619.587 468.87 619.587L457 630.992Z" fill="#CE9436"/>
<path d="M419.361 509.113C421.201 502.814 429.001 499.186 435.001 499.186C441.001 499.186 432.001 499.186 452.001 519.078C457.231 524.278 464.081 528.825 467.511 534.233C493.061 574.765 522.671 584.436 529.001 591.067C536.181 598.644 544.421 615.486 539.001 627.061C536.521 632.347 547.001 612.853 525.001 609.064C516.151 607.539 506.001 614.747 506.001 614.747C496.001 610.958 471.801 589.504 462.841 569.944C458.231 559.884 447.001 539.339 437.001 526.655C427.521 514.683 419.001 510.287 419.361 509.113Z" fill="#C94039"/>
<path d="M419.361 509.113C421.201 502.814 429.001 499.186 435.001 499.186C441.001 499.186 432.001 499.186 452.001 519.078C457.231 524.278 464.081 528.825 467.511 534.233C493.061 574.765 522.671 584.436 529.001 591.067C536.181 598.644 544.421 615.486 539.001 627.061C536.521 632.347 547.001 612.853 525.001 609.064L515.201 590.555C505.201 586.766 481.971 568.826 481.971 568.826C481.971 568.826 447.001 539.339 437.001 526.655C427.521 514.683 419.001 510.287 419.361 509.113Z" fill="#992C29"/>
<path d="M406.501 507.237C422.831 512.4 430.661 559.884 423.501 562.091C416.341 564.298 371.381 525.414 380.501 515.762" stroke="#992C29" stroke-miterlimit="10"/>
<path d="M426.445 570.755C427.855 570.345 428.327 567.941 427.5 565.386C426.672 562.83 424.858 561.09 423.449 561.5C422.039 561.909 421.567 564.313 422.394 566.869C423.222 569.425 425.035 571.164 426.445 570.755Z" fill="#29ABE2"/>
<path d="M414.44 503.25C420.38 500.882 423.09 501.81 427.3 502.937C431.51 504.064 434.84 507.929 442.04 518.187C449.24 528.446 460.45 559.325 457.04 560.755C453.63 562.186 442.33 535.313 435.04 526.655C427.75 517.998 408.5 505.618 414.44 503.25Z" fill="#F3E7D9"/>
<path d="M400 683.894C407.22 681.612 411 674.422 404 675.369C397 676.317 395 681.053 388 685.789C381 690.525 372.33 698.728 377 707.575C379 711.364 380 711.364 383 705.681C386 699.997 388 687.683 400 683.894Z" fill="#F3E7D9"/>
<path d="M372.89 526.76C380.07 529.232 395.89 558.539 401.56 575.068C407.23 591.597 403.81 617.864 407.29 628.321C410.77 638.778 412.18 672.594 409.94 675.521C409.05 676.686 392.36 681.337 386 687.655C380.169 693.641 376.645 701.319 376 709.441C376 709.441 341.21 681.773 359 627.033C358 605.246 334.35 558.605 336 551.255C337.65 543.904 365.71 524.278 372.89 526.76Z" fill="#992C29"/>
<path d="M381.441 538.534C388.631 541.006 395.901 558.539 401.561 575.096C407.221 591.654 403.811 617.892 407.291 628.349C410.771 638.807 412.181 672.622 409.941 675.549C408.301 677.7 403.001 637.481 403.001 637.481C403.001 637.481 392.641 635.406 391.561 627.667C391.041 623.878 393.291 575.267 393.291 575.267C393.291 575.267 374.261 536.052 381.441 538.534Z" fill="#C94039"/>
<path d="M405.3 585.696C407.53 581.538 404.54 574.793 399.79 564.507C395.04 554.22 388 537.331 379.38 528.285C370.33 518.813 350.16 529.156 359.28 533.021C368.7 537.009 379.17 544.302 388.99 559.846C399.91 577.133 403.08 589.845 405.3 585.696Z" fill="#F3E7D9"/>
<path d="M387.771 650.315L391.671 651.263C391.671 651.263 388.981 665.66 376.831 669.137L375.621 666.513C375.621 666.513 384.591 663.264 387.771 650.315Z" fill="#F3E7D9"/>
<path d="M395.551 580.041C395.551 580.041 404.731 604.006 388.771 613.146C392.499 602.427 394.777 591.303 395.551 580.041Z" fill="#C94039"/>
<path d="M496 592.961L497 596.551C497 596.551 502 599.591 519 597.697L518 593.908C518 593.908 505 598.644 496 592.961Z" fill="#F3E7D9"/>
<path d="M601.8 415.007C620.589 415.007 635.82 400.579 635.82 382.782C635.82 364.985 620.589 350.558 601.8 350.558C583.012 350.558 567.78 364.985 567.78 382.782C567.78 400.579 583.012 415.007 601.8 415.007Z" fill="#29ABE2"/>
<path d="M579.32 385.178L598.41 367.153L625.42 375.015" stroke="#F3E7D9" stroke-width="5" stroke-linecap="round" stroke-linejoin="round"/>
<path d="M617.21 375.725C617.152 374.741 616.771 373.799 616.12 373.03C615.469 372.261 614.581 371.703 613.58 371.435L601.76 368.072C600.77 367.795 599.719 367.78 598.72 368.027C597.721 368.274 596.811 368.774 596.09 369.474L588.09 377.25C587.354 377.952 586.868 378.855 586.701 379.832C586.535 380.809 586.695 381.811 587.16 382.697L596 398.904C596.576 399.897 597.487 400.68 598.587 401.126C599.687 401.572 600.913 401.657 602.07 401.367L613.83 398.629C615.027 398.375 616.095 397.738 616.854 396.825C617.614 395.913 618.018 394.78 618 393.618L617.21 375.725ZM604.56 388.56C603.486 388.747 602.378 388.632 601.372 388.23C600.366 387.827 599.507 387.154 598.9 386.294C598.294 385.433 597.966 384.424 597.959 383.389C597.951 382.355 598.264 381.341 598.858 380.473C599.452 379.605 600.301 378.921 601.301 378.505C602.301 378.089 603.407 377.959 604.484 378.132C605.561 378.305 606.56 378.773 607.359 379.479C608.158 380.184 608.722 381.095 608.98 382.1C609.297 383.512 609.01 384.985 608.181 386.197C607.353 387.408 606.05 388.258 604.56 388.56Z" fill="#F3E7D9"/>
<path opacity="0.5" d="M631 373.48C631 385.283 575.13 385.283 575.13 373.48C575.13 361.678 587.63 352.111 603.06 352.111C618.49 352.111 631 361.678 631 373.48Z" fill="#FFFCF3"/>
<path d="M556.81 453.682L570 478.414" stroke="#F7BC4B" stroke-width="3" stroke-linecap="round" stroke-linejoin="round"/>
<path d="M546.97 481.511L571.63 464.338" stroke="#F7BC4B" stroke-width="3" stroke-linecap="round" stroke-linejoin="round"/>
<path d="M542.78 473.782L567.44 456.618" stroke="#F7BC4B" stroke-width="3" stroke-linecap="round" stroke-linejoin="round"/>
<path d="M546.35 461.155L559.54 485.887" stroke="#F7BC4B" stroke-width="3" stroke-linecap="round" stroke-linejoin="round"/>
<path d="M376.21 281.287L309.75 316.761L361.97 338.746L376.21 281.287Z" fill="#33A86D"/>
<path opacity="0.5" d="M376.21 281.287L350.63 296.026L361.97 338.746L376.21 281.287Z" fill="#FFFCF3"/>
<path d="M376.21 281.287L372.67 285.085L333.22 326.498L336.12 327.502L376.21 281.287Z" fill="#288453"/>
<path d="M278.74 229.133C279.57 230.772 285.92 243.749 282.17 251.696C282.086 251.87 282.064 252.065 282.106 252.252C282.148 252.439 282.252 252.608 282.403 252.734C282.555 252.861 282.745 252.938 282.946 252.954C283.147 252.97 283.349 252.924 283.52 252.823C290.79 248.523 306.38 237.128 305.91 218.628C305.31 194.73 278.48 220.523 278.65 228.764C278.65 228.892 278.681 229.018 278.74 229.133Z" fill="#F7BC4B"/>
<path d="M282.7 186.499H261.28C248.462 186.499 238.07 196.342 238.07 208.484V217.871C238.07 230.013 248.462 239.856 261.28 239.856H282.7C295.519 239.856 305.91 230.013 305.91 217.871V208.484C305.91 196.342 295.519 186.499 282.7 186.499Z" fill="#F7BC4B"/>
<path opacity="0.5" d="M256.65 202.497C255.583 201.885 254.716 201.004 254.146 199.953C253.576 198.902 253.325 197.721 253.422 196.543C253.518 195.364 253.958 194.234 254.692 193.279C255.426 192.323 256.426 191.58 257.58 191.131C267.72 187.285 284.23 190.411 288.12 190.846C299.76 192.172 302.25 205.055 301.95 217.7C301.924 218.786 301.596 219.847 301 220.775C300.404 221.704 299.56 222.467 298.554 222.989C297.548 223.511 296.415 223.774 295.268 223.75C294.121 223.726 293.001 223.417 292.02 222.853L256.65 202.497Z" fill="#FFFCF3"/>
<path d="M169.77 357.226C190.564 357.226 207.42 341.259 207.42 321.563C207.42 301.867 190.564 285.9 169.77 285.9C148.977 285.9 132.12 301.867 132.12 321.563C132.12 341.259 148.977 357.226 169.77 357.226Z" fill="#29ABE2"/>
<path d="M161.08 345.964C157.82 347.744 154.42 346.996 152.08 343.188L147.55 335.061C145.23 331.272 145.41 327.417 148.67 325.589C151.93 323.808 155.14 324.225 157.46 328.033L161.99 336.16C164.33 340.053 164.34 344.183 161.08 345.964Z" fill="#F3E7D9"/>
<path d="M158.93 326.839C157.67 324.84 158.49 322.662 159.02 320.379C159.69 317.49 160.91 310.907 160.42 309.77C159.6 307.819 155.42 300.298 156.32 298.214C157.22 296.13 162.79 295.675 165.15 297.93C168.02 300.677 168.02 302.003 169.06 305.905C169.93 309.211 169.6 309.874 173.06 308.823C177.06 307.601 182.72 307.08 184.46 306.36C185.042 306.131 185.668 306.018 186.298 306.029C186.928 306.039 187.55 306.173 188.122 306.422C188.695 306.672 189.208 307.03 189.627 307.476C190.047 307.922 190.364 308.445 190.56 309.012C190.772 309.47 190.856 309.973 190.804 310.47C190.751 310.968 190.564 311.445 190.26 311.854C190.893 312.194 191.443 312.656 191.874 313.211C192.304 313.766 192.606 314.401 192.76 315.075C193.098 316.571 192.923 318.131 192.26 319.526C192.26 319.526 195.76 320.947 194.56 325.683C194.56 325.683 196.87 330.012 193.86 332.503C191.57 334.398 187.44 335.98 182.46 337.997C174.06 341.407 168.21 341.549 166.56 339.986C164.91 338.424 158.93 326.839 158.93 326.839Z" fill="#F3E7D9"/>
<path opacity="0.5" d="M197.42 316.941C197.42 332.096 138.82 332.096 138.82 316.941C138.82 309.58 141.907 302.521 147.402 297.316C152.897 292.111 160.349 289.187 168.12 289.187C175.891 289.187 183.344 292.111 188.839 297.316C194.333 302.521 197.42 309.58 197.42 316.941Z" fill="#FFFCF3"/>
<path d="M319.8 387.992C320.266 389.508 320.408 391.098 320.217 392.667C320.027 394.236 319.507 395.753 318.69 397.13C317.873 398.507 316.774 399.715 315.458 400.685C314.142 401.655 312.635 402.366 311.025 402.777C309.415 403.189 307.735 403.292 306.082 403.081C304.43 402.869 302.838 402.348 301.401 401.547C299.964 400.746 298.71 399.682 297.712 398.417C296.714 397.151 295.993 395.71 295.59 394.177" stroke="#F7BC4B" stroke-width="3" stroke-miterlimit="10"/>
<path d="M295.57 356.231C295.57 356.231 306.21 349.715 314.4 364.292C316.88 368.706 318.6 371.87 321.78 377.288C323.22 379.723 329.26 385.207 329.26 385.207L305.55 391.269" stroke="#F7BC4B" stroke-width="3" stroke-miterlimit="10"/>
<path d="M299.94 355.114C299.94 355.114 287.28 354.555 287.94 371.055C288.14 376.047 288.34 379.58 288.46 385.794C288.51 388.588 286.19 396.214 286.19 396.214L309.91 390.161" stroke="#F7BC4B" stroke-width="3" stroke-miterlimit="10"/>
<path d="M172.52 573.818C183.81 589.371 205.17 593.482 220.86 584.427C236.24 575.551 242.42 556.133 234.31 539.604C225.39 521.455 202.64 513.186 183.95 523.028C164.82 533.097 160.06 556.682 172.52 573.818Z" fill="#EE5D4F"/>
<path opacity="0.5" d="M199.51 544.094C199.51 544.094 235.92 555.574 228.84 541.158C221.05 525.32 201.21 518.131 184.91 526.656C168.22 535.474 199.51 544.094 199.51 544.094Z" fill="#FFFCF3"/>
<g style="mix-blend-mode:color-dodge">
<path d="M179.941 555.12C179.821 541.953 195.781 546.452 197.821 547.087C198.281 545.098 202.201 529.98 213.821 536.668C230.821 546.566 215.491 570.304 213.671 572.994L213.741 573.117H213.581C213.554 573.163 213.524 573.207 213.491 573.249L213.421 573.126C210.061 573.41 180.131 574.86 179.941 555.12Z" fill="#FFFCF3"/>
</g>
<path d="M394.54 588.964L444.49 569.603C446.661 568.763 449.09 568.751 451.271 569.568C453.451 570.385 455.214 571.969 456.19 573.988L475.71 614.406C476.213 615.444 476.493 616.567 476.533 617.709C476.572 618.851 476.371 619.989 475.941 621.056C475.511 622.123 474.86 623.098 474.027 623.925C473.194 624.751 472.196 625.411 471.09 625.868L417.54 648.014C416.395 648.49 415.158 648.736 413.907 648.738C412.656 648.74 411.419 648.496 410.272 648.023C409.125 647.55 408.094 646.857 407.244 645.988C406.393 645.119 405.742 644.093 405.33 642.974L389.4 599.762C388.635 597.681 388.742 595.402 389.698 593.393C390.655 591.384 392.387 589.799 394.54 588.964Z" fill="#F3E7D9"/>
<path d="M433.31 626.284C443.654 626.284 452.04 618.341 452.04 608.543C452.04 598.745 443.654 590.802 433.31 590.802C422.966 590.802 414.58 598.745 414.58 608.543C414.58 618.341 422.966 626.284 433.31 626.284Z" fill="#29ABE2"/>
<path d="M425.58 601.022L433.75 619.502L442.5 604.536L425.58 601.022Z" fill="#C94039"/>
<g opacity="0.5">
<path opacity="0.5" d="M409.31 586.132L445.31 572.179C446.875 571.574 448.625 571.566 450.196 572.156C451.767 572.745 453.037 573.887 453.74 575.343L467.81 604.46C469.32 607.615 406.08 587.382 409.31 586.132Z" fill="#FFFCF3"/>
</g>
<path d="M373.52 495.596L386.46 527.802C386.46 527.802 391.09 533.485 401.3 530.189C411.51 526.892 411.21 518.557 411.21 518.557L397.09 482.42L373.52 495.596Z" fill="#F5894E"/>
<path d="M373.52 495.596C373.52 495.596 390.42 514.541 396.4 517.382C402.38 520.224 410 517.183 410 517.183L398.34 482.136L373.52 495.596Z" fill="#CC6D3D"/>
<path d="M354.1 490.443C370.5 506.546 379.7 507.967 379.7 507.967C412.79 499.508 417.92 471.489 408.7 453.028C399.9 433.601 395.75 428.864 372.75 436.546C340.69 447.231 339.49 476.112 354.1 490.443Z" fill="#1D2538"/>
<path d="M354.1 490.443C370.5 506.537 378 501.081 378 501.081C411.1 492.631 417.92 471.489 408.68 453.019C399.88 433.591 397.68 425.417 370.46 432.938C332.63 443.385 339.49 476.112 354.1 490.443Z" fill="#3E4C6F"/>
<path d="M352.05 491.429C366.05 505.154 385.26 484.495 385.26 484.495C388.99 479.91 384.2 462.709 380.87 451.389C378 441.633 380.11 430.693 353.77 443.253C330.36 454.421 339.6 479.209 352.05 491.429Z" fill="#1D2538"/>
<path d="M373.51 438.896C373.51 438.896 394.01 441.188 398.1 443.167C402.19 445.147 417.56 476.803 416.25 489.032C414.95 501.1 379.38 512.315 368.54 507.768C359.66 504.055 358.8 497.453 353.41 487.952C347.73 477.94 352.62 468.335 351.82 463.95C350.43 456.448 373.51 438.896 373.51 438.896Z" fill="#CC6D3D"/>
<path d="M345.54 489.799C349.34 495.236 355.63 498.769 358.09 497.557C360.55 496.345 359.5 490.926 355.69 485.433C351.88 479.939 346.76 476.481 344.3 477.751C341.84 479.02 341.74 484.353 345.54 489.799Z" fill="#CC6D3D"/>
<path d="M397.54 448.879C404.46 450.3 420.04 484.656 412.36 492.991C404.68 501.327 395.46 502.956 386.51 499.745C378.67 496.903 372.56 471.433 378.51 463.097C385.71 452.895 390.61 447.468 397.54 448.879Z" fill="#F5894E"/>
<path d="M347.89 457.878C347.89 457.878 355.84 472.73 355.77 478.016L354.21 486.351L343.87 464.935L347.89 457.878Z" fill="#1D2538"/>
<path d="M395.06 430.759C395.06 430.759 391.21 438.896 371.24 445.242C361.33 448.387 354.06 454.458 348.92 455.027C336.28 456.41 348.97 429.063 369.11 421.95C389.47 414.77 395.06 430.759 395.06 430.759Z" fill="#1D2538"/>
<path d="M369.14 421.675C353.21 428.021 341.05 447.6 351.23 446.483C354.12 446.161 358.68 445.535 364.11 444.456C372.86 440.269 380.91 432.833 380.91 432.833C381.74 437.238 377.19 440.506 371.83 442.779C376.908 441.572 381.915 440.111 386.83 438.403C395.19 435.466 396.23 435.609 395.9 432.767C395.25 426.979 386.35 414.827 369.14 421.675Z" fill="#3E4C6F"/>
<path d="M369.82 465.086C370.56 467.369 372.02 468.042 373.23 467.691C374.44 467.341 374.93 466.1 374.23 463.807C373.53 461.515 371.91 459.952 370.7 460.303C369.49 460.653 369.08 462.775 369.82 465.086Z" fill="#34283A"/>
<path d="M390.11 459.403C390.85 461.686 392.31 462.358 393.52 462.008C394.73 461.657 395.22 460.416 394.52 458.133C393.82 455.851 392.2 454.278 391 454.629C389.8 454.979 389.37 457.12 390.11 459.403Z" fill="#34283A"/>
<path d="M364 459.488C364.131 459.442 364.247 459.363 364.335 459.26C364.423 459.156 364.48 459.032 364.5 458.901C364.5 458.73 365.22 454.724 368.72 454.506C368.823 454.5 368.923 454.475 369.015 454.432C369.107 454.389 369.19 454.329 369.257 454.256C369.325 454.183 369.377 454.098 369.41 454.006C369.443 453.914 369.457 453.817 369.45 453.72C369.437 453.523 369.343 453.339 369.187 453.207C369.032 453.076 368.828 453.008 368.62 453.019C364.81 453.255 363.24 456.808 362.95 458.702C362.921 458.896 362.974 459.094 363.098 459.251C363.221 459.409 363.405 459.515 363.61 459.545C363.743 459.555 363.876 459.535 364 459.488Z" fill="#34283A"/>
<path d="M397 449.627C397.073 449.604 397.141 449.569 397.2 449.523C397.364 449.405 397.472 449.23 397.5 449.036C397.528 448.843 397.474 448.647 397.35 448.491C395.18 445.744 391.35 446.416 389.69 447.155C389.511 447.238 389.372 447.381 389.302 447.557C389.231 447.733 389.234 447.928 389.31 448.102C389.397 448.272 389.548 448.404 389.734 448.473C389.919 448.541 390.125 448.541 390.31 448.472C390.47 448.396 394.12 446.881 396.07 449.343C396.168 449.484 396.313 449.589 396.483 449.64C396.652 449.692 396.834 449.688 397 449.627Z" fill="#34283A"/>
<path d="M285.63 616.197C285.63 616.197 322.24 563.465 329.11 555.044C336.11 546.453 345.29 538.875 356.74 543.923C368.19 548.972 377.81 564.45 368.47 576.129C359.13 587.808 338.22 617.447 331.12 622.979C324.02 628.51 311.35 640.322 311.19 634.989C311.03 629.657 285.63 616.197 285.63 616.197Z" fill="#1D2538"/>
<path d="M285.63 616.197C283.94 614.103 296.12 600.871 308 585.383C317.21 573.373 326.11 558.719 329.11 555.072C336.11 546.481 352.68 536.639 352 548.574C350.93 567.206 316 576.044 322.47 603.409C327.06 622.818 288.64 619.91 285.63 616.197Z" fill="#273252"/>
<path d="M341.571 566.941C341.571 566.941 326.381 571.933 318.731 585.885C311.081 599.838 341.571 566.941 341.571 566.941Z" fill="#273252"/>
<path d="M370 617.589C370 617.589 356 615.695 334 612.853C312 610.011 303 595.803 292 604.328C281 612.853 278 631.797 287 639.375C296 646.953 330 649.795 347 652.636C364 655.478 370 663.056 374 650.742C378 638.428 376 622.325 370 617.589Z" fill="#C94039"/>
<path d="M370 617.589C370 617.589 356 615.694 334 612.853C312 610.011 358.54 628.776 358.54 628.776C358.54 628.776 370 663.056 374 650.742C378 638.428 376 622.325 370 617.589Z" fill="#992C29"/>
<path d="M377.32 622.552C377.32 622.552 369.53 620.307 366.94 630.016C364.35 639.725 367.42 651.064 372.8 652.494C378.18 653.924 377.32 647.947 377.32 647.947C377.32 647.947 373.86 646.451 373.86 639.725C373.86 633 379.92 626.284 379.92 626.284L377.32 622.552Z" fill="#F3E7D9"/>
<path d="M373.18 643.581C370.18 638.608 371.61 633.891 373.09 627.554C374.94 619.663 378.78 611.896 381 607.17C385 598.645 392.56 599.175 397.11 598.048C404.73 596.153 407.69 596.551 407.69 596.551C407.69 596.551 413.63 598.616 412.54 600.492C411.45 602.367 402.68 602.102 402.85 602.386C403.02 602.67 404.62 602.026 406.51 603.049C407.163 603.466 407.694 604.031 408.056 604.693C408.417 605.355 408.598 606.093 408.58 606.838C408.646 607.62 408.443 608.401 408 609.064C408.577 608.949 409.177 609.039 409.688 609.317C410.199 609.595 410.584 610.041 410.77 610.57C411.249 611.833 411.515 613.16 411.56 614.501C411.357 615.706 410.883 616.856 410.17 617.873C410.17 617.873 411.56 616.926 412.55 619.37C413.54 621.814 412.1 624.93 412.01 625.489C411.01 632.119 394.01 635.548 394.01 635.548C393.457 637.668 392.447 639.656 391.042 641.387C389.638 643.119 387.87 644.556 385.85 645.608C378.85 649.397 378.46 649.188 377.01 647.862C375.649 646.505 374.37 645.076 373.18 643.581Z" fill="#F5894E"/>
</svg>
